<svg xmlns="http://www.w3.org/2000/svg" width="16" height="16" viewBox="0 0 16 16"><g><g><path fill="#b12f2f" d="M13.31 7.989L7.256 1.905a1.124 1.124 0 0 1 0-1.584 1.11 1.11 0 0 1 1.575 0l6.84 6.876c.218.22.326.505.326.792 0 .287-.108.573-.326.792l-6.84 6.877a1.11 1.11 0 0 1-1.575 0 1.125 1.125 0 0 1 0-1.585zm-6.935 0L.323 1.905a1.124 1.124 0 0 1 0-1.584 1.11 1.11 0 0 1 1.575 0l6.84 6.876c.217.22.326.505.326.792 0 .287-.108.573-.326.792l-6.84 6.877a1.11 1.11 0 0 1-1.575 0 1.125 1.125 0 0 1 0-1.585z"/></g></g></svg>