<svg xmlns="http://www.w3.org/2000/svg" width="23" height="20" viewBox="0 0 23 20"><g><g><path fill="#fff" d="M.53 12.346c-.702-.738-.482-1.771-.482-1.771s.899 0 1.618.758c.717.757.51 1.635.51 1.635s-.946.116-1.646-.622zm2.705-1.177a2.5 2.5 0 0 1 .883-1.576s.766.709.618 1.725c-.148 1.015-.982 1.483-.982 1.483s-.671-.589-.519-1.632zm1.067 2.636a2.522 2.522 0 0 1 .672-1.68s.85.599.835 1.627c-.018 1.026-.785 1.601-.785 1.601s-.74-.495-.722-1.548zM6.05 15.35a2.531 2.531 0 0 1 .515-1.74s.902.517.98 1.541c.078 1.024-.632 1.67-.632 1.67s-.785-.422-.863-1.471zm1.991 1.58c-.373-.984.004-1.817.004-1.817s1.01.23 1.373 1.188c.364.958-.135 1.785-.135 1.785s-.868-.174-1.242-1.156zM1.483 9.27c-.182-1.011.562-1.746.562-1.746s.748.51.934 1.546c.186 1.037-.464 1.648-.464 1.648s-.85-.438-1.032-1.448zm-.188 5.582c-.882-.495-.971-1.547-.971-1.547s.858-.27 1.765.238c.905.507.96 1.408.96 1.408s-.871.396-1.754-.099zm1.555 2.145c-.97-.282-1.285-1.287-1.285-1.287s.778-.459 1.771-.17a1.842 1.842 0 0 1 1.243 1.156s-.76.583-1.73.3zm1.875 1.76c-1.005.029-1.605-.831-1.605-.831s.607-.677 1.639-.707a1.81 1.81 0 0 1 1.528.718s-.554.79-1.562.82zm3.892.212s-.456.852-1.453 1.005c-.994.152-1.693-.629-1.693-.629s.525-.747 1.546-.903c1.02-.157 1.6.527 1.6.527zm1.853-.317l-.137.481c-8.071-2.415-7.976-7.863-7.973-7.917l.492.016c-.006.208-.065 5.119 7.618 7.42zm10.863-7.32c.72-.758 1.619-.758 1.619-.758s.218 1.033-.483 1.77c-.7.739-1.645.623-1.645.623s-.209-.878.51-1.635zm-2.45-1.74s.73.534.882 1.576c.152 1.043-.52 1.632-.52 1.632s-.834-.468-.982-1.483c-.148-1.016.62-1.725.62-1.725zm-.856 2.531s.655.627.673 1.681c.017 1.053-.723 1.548-.723 1.548s-.768-.575-.786-1.601c-.016-1.028.836-1.628.836-1.628zm-1.593 1.486s.596.688.516 1.738c-.08 1.05-.863 1.473-.863 1.473s-.71-.646-.633-1.67c.077-1.024.98-1.54.98-1.54zm-1.48 1.502s.376.834.003 1.817c-.373.982-1.242 1.157-1.242 1.157s-.498-.829-.135-1.785c.363-.958 1.373-1.189 1.373-1.189zm5.53-4.392s-.65-.612-.464-1.647a2.506 2.506 0 0 1 .935-1.547s.743.734.562 1.746c-.181 1.009-1.032 1.448-1.032 1.448zm2.191 2.586s-.09 1.052-.971 1.547c-.883.495-1.753.099-1.753.099s.054-.9.96-1.408c.906-.507 1.764-.238 1.764-.238zm-1.24 2.405s-.316 1.005-1.284 1.287c-.969.282-1.73-.3-1.73-.3s.249-.867 1.242-1.156a2.41 2.41 0 0 1 1.773.169zm-1.555 2.215s-.601.861-1.605.832c-1.009-.03-1.562-.82-1.562-.82s.495-.75 1.527-.718c1.033.03 1.64.706 1.64.706zm-2.351 1.42s-.698.781-1.693.629c-.996-.153-1.453-1.005-1.453-1.005s.578-.683 1.6-.527c1.022.157 1.546.903 1.546.903zm-4.861-.212l-.138-.481c7.684-2.301 7.625-7.212 7.619-7.42l.491-.016c.002.054.099 5.502-7.972 7.917zm1.983-6.102v.819H8.349v-.819h.676v-1.694c1.23-.347 1.42-2.535 1.441-2.856h-.414V6.838c-.28-.117-.719-.405-1.146-.915l-.744.845-.818-.75.642-.73c-.708.24-1.866.462-2.77-.186C4.21 4.38 3.861 2.827 4.182.493L4.247.01 11.5.016 18.753.01l.065.483c.32 2.334-.028 3.886-1.034 4.61-.904.647-2.062.426-2.77.186l.642.729-.818.75-.744-.845c-.426.51-.865.798-1.145.915v1.644h-.415c.022.321.21 2.509 1.441 2.856v1.694zm.401-8.925c.5.218 1.497.512 2.1.076.574-.415.791-1.466.633-3.05l-2.46-.002c.085 1.207-.036 2.191-.273 2.976zm-7.105-.002c-.237-.784-.358-1.769-.273-2.975l-2.46.002c-.157 1.584.06 2.635.634 3.05.602.436 1.6.143 2.099-.077z"/></g></g></svg>