<svg xmlns="http://www.w3.org/2000/svg" width="19" height="19" viewBox="0 0 19 19"><g><g opacity=".75"><path fill="#fff" d="M8.108 14.064a.56.56 0 0 1-.56-.56V5.489a.558.558 0 0 1 .918-.43l4.818 4.008a.561.561 0 0 1 0 .86l-4.818 4.007a.56.56 0 0 1-.358.13zm.56-7.381v5.628l3.383-2.814zm.8 12.316c-1.595 0-3.2-.397-4.652-1.214a.56.56 0 1 1 .55-.974 8.44 8.44 0 0 0 10.06-1.384c3.277-3.27 3.277-8.591 0-11.862-3.276-3.27-8.607-3.27-11.883 0-3.277 3.27-3.277 8.592 0 11.862a.56.56 0 1 1-.792.792c-3.714-3.707-3.714-9.738 0-13.444 3.713-3.708 9.755-3.708 13.468 0 3.714 3.706 3.714 9.737 0 13.444A9.556 9.556 0 0 1 9.47 19z"/></g></g></svg>