<svg xmlns="http://www.w3.org/2000/svg" width="50" height="57" viewBox="0 0 50 57"><g><g><path fill="#0b0b0b" d="M1.857 28.815H50V57H1.856zm14.768-9.542h7.891l-4.979 7.43-.093.139h-7.891l.093-.14zm15.617 0h7.892l-4.98 7.43-.093.139H27.17l.093-.14zm-30.386 0H8.9l-4.979 7.43-.093.139h-1.97zm41.024 7.43l4.98-7.43H50v7.569h-7.213zM17.044 7.576l6.773 6.077-7.648 1.957-6.772-6.078zM32.18 3.704l6.772 6.077-7.647 1.957-6.773-6.077zM46.656 0l1.857 7.335-2.075.53-6.772-6.076zM8.682 17.527l-6.826 1.746L0 11.94l1.91-.49z"/></g></g></svg>