<svg xmlns="http://www.w3.org/2000/svg" width="35" height="35" viewBox="0 0 35 35"><g><g><path fill="#fff" d="M5.783 28.064a.646.646 0 0 1-.45-.183.698.698 0 0 1-.034-.966c.055-.059 5.569-6.008 14.813-1.758a.69.69 0 0 1 .333.902.655.655 0 0 1-.872.347c-8.39-3.86-13.256 1.386-13.304 1.44a.646.646 0 0 1-.486.218zm28.736-2.484c.483 1.31.48 2.497-.008 3.535-.889 1.883-3.064 2.5-3.153 2.526-5.795 2.55-10.43 3.368-13.992 3.368-4.939 0-7.812-1.57-8.852-2.277-3.335 2.483-7.025 1.355-7.188 1.304a.684.684 0 0 1-.438-.85.66.66 0 0 1 .824-.457c.14.046 3.495 1.05 6.369-1.376a.65.65 0 0 1 .842.005c.064.054 6.92 5.624 22.003-1.003.104-.039 1.779-.521 2.396-1.843.344-.736.303-1.63-.126-2.664a.69.69 0 0 1 .014-.57c.022-.045 2.251-5.13-3.486-14.739l-.202-.341c-1.496-2.515-4.285-7.194-6.484-8.703-.998-.644-8.644.824-9.607 1.832l-.045.326c-.06.43-.153 1.082-.064 1.224.384.224 1.942.388 3.166.41a.659.659 0 0 1 .6.427c.101.253.046.54-.141.738-.316.33-.635.722-.832 1.014 2.234.498 7.384.453 8.209-.735a.653.653 0 0 1 .921-.158c.296.22.367.644.153.951-.383.558-1.116.933-2.02 1.182-.043.123-2.049 6.354-.185 10.818 1.582 1.103 2.728 2.964 3.399 5.58a.682.682 0 0 1-.639.858.666.666 0 0 1-.638-.507c-.604-2.357-1.613-3.995-2.99-4.894a.603.603 0 0 0-.037-.027 4.812 4.812 0 0 0-.692-.373c-3.114-1.341-6.906.885-6.944.907a.643.643 0 0 1-.517.066.666.666 0 0 1-.402-.34C9.994 13.352 1.277 17.045.908 17.207a.658.658 0 0 1-.867-.367.689.689 0 0 1 .35-.894c.1-.044 9.73-4.145 14.197 3.623 1.233-.605 4.154-1.745 6.938-.857-1.008-3.792-.073-8.051.386-9.727-2.617.322-5.785-.043-6.712-.361a.869.869 0 0 1-.573-.636c-.035-.156-.127-.549.466-1.408-.878-.073-1.92-.221-2.426-.521-.886-.518-.736-1.579-.59-2.607l.057-.413c.083-.634.746-1.02 1.316-1.286C15.762.673 22.295-.657 23.774.357 26.212 2.035 29.1 6.88 30.65 9.483l.201.338c5.439 9.108 4.128 14.464 3.668 15.759z"/></g></g></svg>